<mxfile host="app.diagrams.net" agent="Mozilla/5.0 (Windows NT 10.0; Win64; x64) AppleWebKit/537.36 (KHTML, like Gecko) Chrome/138.0.0.0 Safari/537.36 OPR/122.0.0.0 (Edition std-2)" version="28.2.5">
  <diagram name="PÃ¡gina-1" id="uX9shmX5wNB9xqoOuZO5">
    <mxGraphModel dx="906" dy="524" grid="1" gridSize="10" guides="1" tooltips="1" connect="1" arrows="1" fold="1" page="1" pageScale="1" pageWidth="827" pageHeight="1169" math="0" shadow="0">
      <root>
        <mxCell id="0" />
        <mxCell id="1" parent="0" />
        <mxCell id="7_kEjzB8udLPcq1bLX3u-1" value="Dados" style="rounded=0;whiteSpace=wrap;html=1;" parent="1" vertex="1">
          <mxGeometry x="600" y="160" width="120" height="60" as="geometry" />
        </mxCell>
        <mxCell id="7_kEjzB8udLPcq1bLX3u-2" value="GUI" style="rounded=0;whiteSpace=wrap;html=1;" parent="1" vertex="1">
          <mxGeometry x="280" y="160" width="120" height="60" as="geometry" />
        </mxCell>
        <mxCell id="7_kEjzB8udLPcq1bLX3u-3" value="MA" style="rounded=0;whiteSpace=wrap;html=1;" parent="1" vertex="1">
          <mxGeometry x="360" y="60" width="120" height="60" as="geometry" />
        </mxCell>
        <mxCell id="7_kEjzB8udLPcq1bLX3u-4" value="Thread" style="rounded=0;whiteSpace=wrap;html=1;" parent="1" vertex="1">
          <mxGeometry x="520" y="60" width="120" height="60" as="geometry" />
        </mxCell>
        <mxCell id="7_kEjzB8udLPcq1bLX3u-5" value="RobotController" style="rounded=0;whiteSpace=wrap;html=1;" parent="1" vertex="1">
          <mxGeometry x="440" y="160" width="120" height="60" as="geometry" />
        </mxCell>
        <mxCell id="7_kEjzB8udLPcq1bLX3u-6" value="" style="endArrow=diamondThin;endFill=1;endSize=24;html=1;rounded=0;exitX=0;exitY=0.5;exitDx=0;exitDy=0;" parent="1" source="7_kEjzB8udLPcq1bLX3u-5" target="7_kEjzB8udLPcq1bLX3u-2" edge="1">
          <mxGeometry width="160" relative="1" as="geometry">
            <mxPoint x="240" y="230" as="sourcePoint" />
            <mxPoint x="400" y="230" as="targetPoint" />
            <Array as="points">
              <mxPoint x="400" y="190" />
            </Array>
          </mxGeometry>
        </mxCell>
        <mxCell id="7_kEjzB8udLPcq1bLX3u-7" value="" style="endArrow=diamondThin;endFill=1;endSize=24;html=1;rounded=0;exitX=0;exitY=0.5;exitDx=0;exitDy=0;entryX=0.5;entryY=1;entryDx=0;entryDy=0;" parent="1" source="7_kEjzB8udLPcq1bLX3u-1" edge="1">
          <mxGeometry width="160" relative="1" as="geometry">
            <mxPoint x="880" y="130" as="sourcePoint" />
            <mxPoint x="560" y="190" as="targetPoint" />
          </mxGeometry>
        </mxCell>
        <mxCell id="7_kEjzB8udLPcq1bLX3u-14" value="" style="endArrow=diamondThin;endFill=1;endSize=24;html=1;rounded=0;exitX=0.75;exitY=1;exitDx=0;exitDy=0;entryX=0.25;entryY=0;entryDx=0;entryDy=0;" parent="1" source="7_kEjzB8udLPcq1bLX3u-3" target="7_kEjzB8udLPcq1bLX3u-5" edge="1">
          <mxGeometry width="160" relative="1" as="geometry">
            <mxPoint x="560" y="140" as="sourcePoint" />
            <mxPoint x="520" y="140" as="targetPoint" />
            <Array as="points">
              <mxPoint x="450" y="130" />
              <mxPoint x="470" y="130" />
            </Array>
          </mxGeometry>
        </mxCell>
        <mxCell id="7_kEjzB8udLPcq1bLX3u-26" value="" style="endArrow=block;endSize=16;endFill=0;html=1;rounded=0;entryX=0;entryY=0.5;entryDx=0;entryDy=0;exitX=1;exitY=0.5;exitDx=0;exitDy=0;" parent="1" source="7_kEjzB8udLPcq1bLX3u-3" target="7_kEjzB8udLPcq1bLX3u-4" edge="1">
          <mxGeometry width="160" relative="1" as="geometry">
            <mxPoint x="540" y="100" as="sourcePoint" />
            <mxPoint x="420" y="20" as="targetPoint" />
            <Array as="points">
              <mxPoint x="500" y="90" />
            </Array>
          </mxGeometry>
        </mxCell>
        <mxCell id="7_kEjzB8udLPcq1bLX3u-29" value="" style="endArrow=diamondThin;endFill=0;endSize=24;html=1;rounded=0;entryX=0.25;entryY=1;entryDx=0;entryDy=0;exitX=0;exitY=0.25;exitDx=0;exitDy=0;" parent="1" source="7_kEjzB8udLPcq1bLX3u-5" target="7_kEjzB8udLPcq1bLX3u-3" edge="1">
          <mxGeometry width="160" relative="1" as="geometry">
            <mxPoint x="380" y="150" as="sourcePoint" />
            <mxPoint x="460" y="315" as="targetPoint" />
            <Array as="points">
              <mxPoint x="430" y="175" />
              <mxPoint x="430" y="150" />
              <mxPoint x="390" y="150" />
            </Array>
          </mxGeometry>
        </mxCell>
        <mxCell id="FaHiUyKWzYXM6_EV55cp-1" value="Thread" style="rounded=0;whiteSpace=wrap;html=1;" vertex="1" parent="1">
          <mxGeometry x="380" y="260" width="120" height="60" as="geometry" />
        </mxCell>
        <mxCell id="FaHiUyKWzYXM6_EV55cp-2" value="Movement" style="rounded=0;whiteSpace=wrap;html=1;" vertex="1" parent="1">
          <mxGeometry x="520" y="260" width="120" height="60" as="geometry" />
        </mxCell>
        <mxCell id="FaHiUyKWzYXM6_EV55cp-3" value="" style="endArrow=block;endSize=16;endFill=0;html=1;rounded=0;entryX=0.5;entryY=0;entryDx=0;entryDy=0;exitX=0.25;exitY=1;exitDx=0;exitDy=0;" edge="1" parent="1" source="7_kEjzB8udLPcq1bLX3u-5" target="FaHiUyKWzYXM6_EV55cp-1">
          <mxGeometry width="160" relative="1" as="geometry">
            <mxPoint x="490" y="240" as="sourcePoint" />
            <mxPoint x="670" y="90" as="targetPoint" />
            <Array as="points">
              <mxPoint x="470" y="230" />
              <mxPoint x="440" y="230" />
            </Array>
          </mxGeometry>
        </mxCell>
        <mxCell id="FaHiUyKWzYXM6_EV55cp-4" value="" style="endArrow=diamondThin;endFill=1;endSize=24;html=1;rounded=0;exitX=0.5;exitY=0;exitDx=0;exitDy=0;entryX=0.75;entryY=1;entryDx=0;entryDy=0;" edge="1" parent="1" source="FaHiUyKWzYXM6_EV55cp-2" target="7_kEjzB8udLPcq1bLX3u-5">
          <mxGeometry width="160" relative="1" as="geometry">
            <mxPoint x="650" y="190" as="sourcePoint" />
            <mxPoint x="670" y="230" as="targetPoint" />
            <Array as="points">
              <mxPoint x="580" y="250" />
              <mxPoint x="530" y="250" />
            </Array>
          </mxGeometry>
        </mxCell>
        <mxCell id="FaHiUyKWzYXM6_EV55cp-5" value="MovementEnum" style="rounded=0;whiteSpace=wrap;html=1;" vertex="1" parent="1">
          <mxGeometry x="720" y="60" width="120" height="60" as="geometry" />
        </mxCell>
        <mxCell id="FaHiUyKWzYXM6_EV55cp-6" value="ILogger" style="rounded=0;whiteSpace=wrap;html=1;" vertex="1" parent="1">
          <mxGeometry x="720" y="260" width="120" height="60" as="geometry" />
        </mxCell>
      </root>
    </mxGraphModel>
  </diagram>
</mxfile>
